# xmcd CD database file
#
# Track frame offsets:
#	150
#	14195
#	33092
#	48117
#	62170
#
# Disc length: 1078 seconds
#
# Revision: 1
# Processed by: cddbd v1.5.2PL0 Copyright (c) Steve Scherf et al.
# Submitted via: CDex 1.70beta3
#
DISCID=3a043405
DTITLE=Aice5 - Believe My Love
DYEAR=2006
DGENRE=アニメ
TTITLE0=Believe My Love
TTITLE1=友情物語
TTITLE2=Believe My Love <HYPER TRANCE MIX>
TTITLE3=Believe My Love <off vocal version>
TTITLE4=友情物語 <off vocal version>
EXTD=YEAR: 2006
EXTT0=
EXTT1=
EXTT2=
EXTT3=
EXTT4=
PLAYORDER=
